<svg xmlns="http://www.w3.org/2000/svg" viewBox="0 0 100 100">
  <!-- Outer circle -->
  <circle cx="50" cy="50" r="48" fill="none" stroke="#1a1a1a" stroke-width="2"/>
  
  <!-- Yin-Yang symbol in center -->
  <circle cx="50" cy="50" r="20" fill="#1a1a1a"/>
  <path d="M50,30 A20,20 0 0,1 50,70 A10,10 0 0,0 50,50 A10,10 0 0,1 50,30" fill="#fff"/>
  <circle cx="50" cy="40" r="3" fill="#1a1a1a"/>
  <circle cx="50" cy="60" r="3" fill="#fff"/>
  
  <!-- Trigrams (Bát Quái) - 8 trigrams around the circle -->
  <!-- Qian (☰) - top -->
  <g transform="translate(50, 8)">
    <rect x="-12" y="0" width="24" height="3" fill="#1a1a1a"/>
    <rect x="-12" y="5" width="24" height="3" fill="#1a1a1a"/>
    <rect x="-12" y="10" width="24" height="3" fill="#1a1a1a"/>
  </g>
  
  <!-- Dui (☱) - top-right -->
  <g transform="translate(79, 21) rotate(45)">
    <rect x="-10" y="0" width="20" height="2.5" fill="#1a1a1a"/>
    <rect x="-10" y="4" width="8" height="2.5" fill="#1a1a1a"/>
    <rect x="2" y="4" width="8" height="2.5" fill="#1a1a1a"/>
    <rect x="-10" y="8" width="20" height="2.5" fill="#1a1a1a"/>
  </g>
  
  <!-- Li (☲) - right -->
  <g transform="translate(85, 50) rotate(90)">
    <rect x="-10" y="-6" width="20" height="2.5" fill="#1a1a1a"/>
    <rect x="-10" y="-2" width="8" height="2.5" fill="#1a1a1a"/>
    <rect x="2" y="-2" width="8" height="2.5" fill="#1a1a1a"/>
    <rect x="-10" y="2" width="20" height="2.5" fill="#1a1a1a"/>
  </g>
  
  <!-- Zhen (☳) - bottom-right -->
  <g transform="translate(79, 79) rotate(135)">
    <rect x="-10" y="0" width="8" height="2.5" fill="#1a1a1a"/>
    <rect x="2" y="0" width="8" height="2.5" fill="#1a1a1a"/>
    <rect x="-10" y="4" width="8" height="2.5" fill="#1a1a1a"/>
    <rect x="2" y="4" width="8" height="2.5" fill="#1a1a1a"/>
    <rect x="-10" y="8" width="20" height="2.5" fill="#1a1a1a"/>
  </g>
  
  <!-- Kun (☷) - bottom -->
  <g transform="translate(50, 85)">
    <rect x="-12" y="0" width="10" height="3" fill="#1a1a1a"/>
    <rect x="2" y="0" width="10" height="3" fill="#1a1a1a"/>
    <rect x="-12" y="5" width="10" height="3" fill="#1a1a1a"/>
    <rect x="2" y="5" width="10" height="3" fill="#1a1a1a"/>
    <rect x="-12" y="10" width="10" height="3" fill="#1a1a1a"/>
    <rect x="2" y="10" width="10" height="3" fill="#1a1a1a"/>
  </g>
  
  <!-- Gen (☶) - bottom-left -->
  <g transform="translate(21, 79) rotate(-135)">
    <rect x="-10" y="0" width="20" height="2.5" fill="#1a1a1a"/>
    <rect x="-10" y="4" width="8" height="2.5" fill="#1a1a1a"/>
    <rect x="2" y="4" width="8" height="2.5" fill="#1a1a1a"/>
    <rect x="-10" y="8" width="8" height="2.5" fill="#1a1a1a"/>
    <rect x="2" y="8" width="8" height="2.5" fill="#1a1a1a"/>
  </g>
  
  <!-- Kan (☵) - left -->
  <g transform="translate(15, 50) rotate(-90)">
    <rect x="-10" y="-6" width="8" height="2.5" fill="#1a1a1a"/>
    <rect x="2" y="-6" width="8" height="2.5" fill="#1a1a1a"/>
    <rect x="-10" y="-2" width="20" height="2.5" fill="#1a1a1a"/>
    <rect x="-10" y="2" width="8" height="2.5" fill="#1a1a1a"/>
    <rect x="2" y="2" width="8" height="2.5" fill="#1a1a1a"/>
  </g>
  
  <!-- Xun (☴) - top-left -->
  <g transform="translate(21, 21) rotate(-45)">
    <rect x="-10" y="0" width="20" height="2.5" fill="#1a1a1a"/>
    <rect x="-10" y="4" width="20" height="2.5" fill="#1a1a1a"/>
    <rect x="-10" y="8" width="8" height="2.5" fill="#1a1a1a"/>
    <rect x="2" y="8" width="8" height="2.5" fill="#1a1a1a"/>
  </g>
</svg>
