<?xml version="1.0" encoding="UTF-8"?>
<svg id="Layer_1" data-name="Layer 1" xmlns="http://www.w3.org/2000/svg" xmlns:xlink="http://www.w3.org/1999/xlink" viewBox="0 0 300 600">
  <defs>
    <style>
      .cls-1 {
        fill: url(#linear-gradient-15);
      }

      .cls-2 {
        fill: url(#linear-gradient-13);
      }

      .cls-3 {
        fill: url(#linear-gradient-28);
      }

      .cls-4 {
        clip-path: url(#clippath-6);
      }

      .cls-5 {
        clip-path: url(#clippath-7);
      }

      .cls-6 {
        clip-path: url(#clippath-17);
      }

      .cls-7 {
        clip-path: url(#clippath-15);
      }

      .cls-8 {
        clip-path: url(#clippath-4);
      }

      .cls-9 {
        fill: url(#linear-gradient-2);
      }

      .cls-10 {
        fill: url(#linear-gradient-25);
      }

      .cls-11 {
        fill: url(#linear-gradient-10);
      }

      .cls-12 {
        fill: url(#linear-gradient-12);
      }

      .cls-13 {
        fill: url(#linear-gradient-27);
      }

      .cls-14 {
        clip-path: url(#clippath-9);
      }

      .cls-15 {
        clip-path: url(#clippath-10);
      }

      .cls-16 {
        fill: url(#linear-gradient-26);
      }

      .cls-17 {
        clip-path: url(#clippath-11);
      }

      .cls-18 {
        fill: none;
      }

      .cls-19 {
        fill: url(#linear-gradient-4);
      }

      .cls-20 {
        fill: url(#linear-gradient-35);
      }

      .cls-21 {
        fill: url(#linear-gradient-30);
      }

      .cls-22 {
        fill: url(#linear-gradient-3);
      }

      .cls-23 {
        fill: url(#linear-gradient-34);
      }

      .cls-24 {
        clip-path: url(#clippath-1);
      }

      .cls-25 {
        fill: url(#linear-gradient-5);
      }

      .cls-26 {
        fill: url(#linear-gradient-22);
      }

      .cls-27 {
        fill: url(#linear-gradient-24);
      }

      .cls-28 {
        clip-path: url(#clippath-5);
      }

      .cls-29 {
        fill: url(#linear-gradient-33);
      }

      .cls-30 {
        clip-path: url(#clippath-8);
      }

      .cls-31 {
        fill: url(#linear-gradient-8);
      }

      .cls-32 {
        clip-path: url(#clippath-3);
      }

      .cls-33 {
        clip-path: url(#clippath-12);
      }

      .cls-34 {
        fill: url(#linear-gradient-14);
      }

      .cls-35 {
        clip-path: url(#clippath-14);
      }

      .cls-36 {
        fill: url(#linear-gradient-29);
      }

      .cls-37 {
        fill: url(#linear-gradient-20);
      }

      .cls-38 {
        fill: url(#linear-gradient-17);
      }

      .cls-39 {
        fill: url(#linear-gradient-7);
      }

      .cls-40 {
        fill: url(#linear-gradient-9);
      }

      .cls-41 {
        fill: url(#linear-gradient-11);
      }

      .cls-42 {
        fill: url(#linear-gradient-19);
      }

      .cls-43 {
        fill: url(#linear-gradient-6);
      }

      .cls-44 {
        fill: url(#linear-gradient-21);
      }

      .cls-45 {
        clip-path: url(#clippath-16);
      }

      .cls-46 {
        clip-path: url(#clippath-2);
      }

      .cls-47 {
        fill: url(#linear-gradient-32);
      }

      .cls-48 {
        clip-path: url(#clippath-13);
      }

      .cls-49 {
        fill: url(#linear-gradient-16);
      }

      .cls-50 {
        fill: url(#linear-gradient);
      }

      .cls-51 {
        fill: url(#linear-gradient-23);
      }

      .cls-52 {
        fill: url(#linear-gradient-31);
      }

      .cls-53 {
        clip-path: url(#clippath);
      }

      .cls-54 {
        fill: url(#linear-gradient-18);
      }
    </style>
    <linearGradient id="linear-gradient" x1="166.73" y1="427.23" x2="205.06" y2="354.47" gradientUnits="userSpaceOnUse">
      <stop offset="0" stop-color="#b9902e"/>
      <stop offset=".11" stop-color="#e3c163"/>
      <stop offset=".27" stop-color="#99762c"/>
      <stop offset=".46" stop-color="#f9dc6c"/>
      <stop offset=".61" stop-color="#faf18a"/>
      <stop offset=".76" stop-color="#f8f7e0"/>
      <stop offset="1" stop-color="#fcdd71"/>
    </linearGradient>
    <linearGradient id="linear-gradient-2" x1="190.16" y1="437.57" x2="216.5" y2="387.56" xlink:href="#linear-gradient"/>
    <linearGradient id="linear-gradient-3" x1="204.75" y1="445.28" x2="231.09" y2="395.28" xlink:href="#linear-gradient"/>
    <linearGradient id="linear-gradient-4" x1="218.88" y1="452.58" x2="245.21" y2="402.58" xlink:href="#linear-gradient"/>
    <linearGradient id="linear-gradient-5" x1="233.91" y1="460.71" x2="260.25" y2="410.7" xlink:href="#linear-gradient"/>
    <linearGradient id="linear-gradient-6" x1="37.62" y1="416.57" x2="177.49" y2="416.57" xlink:href="#linear-gradient"/>
    <linearGradient id="linear-gradient-7" x1="37.62" y1="416.57" x2="177.49" y2="416.57" xlink:href="#linear-gradient"/>
    <clipPath id="clippath">
      <path class="cls-39" d="M53.45,401.73c-.31.08-.93.16-1.68.24-.74.04-8.49.04-9.74.04-.55,0-1.44-.04-2.46-.08-.97,0-2.1-.04-3.15-.04-.58,0-.86.08-.86.35s.23.35.66.35c.55,0,1.21.04,1.52.12,1.29.27,1.6.9,1.68,2.23.08,1.25.08,2.34.08,8.29v6.88c0,3.6,0,6.69-.2,8.33-.15,1.14-.35,2-1.13,2.15-.35.08-.82.16-1.4.16-.47,0-.62.12-.62.31,0,.27.27.39.78.39.78,0,1.79-.08,2.69-.08.93-.04,1.79-.04,2.22-.04,1.17,0,2.38.04,4.05.12,1.67.04,3.81.12,6.74.12,1.48,0,1.83,0,2.1-1.01.2-.78.51-3.44.51-4.34,0-.39,0-.7-.31-.7-.27,0-.35.16-.43.59-.27,1.6-.74,2.42-1.75,2.89-1.01.47-2.65.47-3.66.47-3.97,0-4.6-.59-4.68-3.29-.04-1.13,0-4.73,0-6.06v-3.09c0-.23.04-.39.24-.39.93,0,4.79.04,5.53.12,1.44.16,1.99.74,2.18,1.53.12.51.12,1.02.16,1.41,0,.2.08.35.35.35.35,0,.35-.43.35-.74,0-.27.12-1.84.16-2.62.16-1.99.31-2.62.31-2.85s-.12-.31-.27-.31c-.2,0-.35.19-.62.51-.35.39-.94.51-1.87.59-.9.08-5.37.08-6.23.08-.23,0-.27-.16-.27-.43v-9.89c0-.27.08-.39.27-.39.78,0,4.87.08,5.53.16,1.95.24,2.34.71,2.61,1.4.19.47.23,1.14.23,1.41,0,.35.08.55.35.55s.35-.24.39-.43c.08-.47.16-2.19.19-2.58.12-1.8.31-2.27.31-2.54,0-.2-.04-.35-.23-.35s-.43.12-.62.16"/>
    </clipPath>
    <linearGradient id="linear-gradient-8" x1="-648.43" y1="777.27" x2="-646.28" y2="777.27" gradientTransform="translate(49136.65 59318.24) rotate(.02) scale(75.76 -75.76)" xlink:href="#linear-gradient"/>
    <linearGradient id="linear-gradient-9" x1="42.64" y1="421.17" x2="162.65" y2="421.17" xlink:href="#linear-gradient"/>
    <linearGradient id="linear-gradient-10" x1="42.64" y1="421.17" x2="162.65" y2="421.17" xlink:href="#linear-gradient"/>
    <clipPath id="clippath-1">
      <path class="cls-11" d="M63.48,423.11l2.66-6.67c.03-.09.06-.25.16-.25.06,0,.09.16.12.25l2.6,6.7c.03.09,0,.16-.12.16h-5.33c-.09,0-.16-.06-.09-.19M66.21,411.88l-7.21,16.7c-.56,1.35-1.03,2.17-2.29,2.36-.25,0-.56.03-.81.03-.22,0-.31.12-.31.28,0,.22.16.28.5.28,1.44,0,2.91-.09,3.2-.09.88,0,2.16.09,3.07.09.28,0,.44-.06.44-.28,0-.16-.06-.28-.41-.28h-.41c-.85,0-1.1-.28-1.1-.75,0-.32.13-.98.41-1.64l1.47-3.62c.06-.16.09-.19.25-.19h6.48c.13,0,.22.03.28.19l2.13,5.41c.13.32-.06.57-.25.6-.28.03-.34.12-.34.28,0,.19.31.19.82.22,2.32.06,4.33.06,5.29.06,1.03,0,1.19-.06,1.19-.28,0-.19-.13-.28-.38-.28-.31,0-.63-.03-1.03-.1-.5-.09-1.28-.44-2.35-2.86-1.75-4.06-6.36-14.88-7.02-16.35-.28-.6-.41-.85-.82-.85-.28,0-.5.31-.81,1.07"/>
    </clipPath>
    <linearGradient id="linear-gradient-11" x1="-648.52" y1="777.23" x2="-646.78" y2="777.23" gradientTransform="translate(49142.61 59323.3) rotate(.03) scale(75.76 -75.76)" xlink:href="#linear-gradient"/>
    <linearGradient id="linear-gradient-12" x1="42.76" y1="421.41" x2="162.1" y2="421.41" xlink:href="#linear-gradient"/>
    <linearGradient id="linear-gradient-13" x1="42.76" y1="421.41" x2="162.1" y2="421.41" xlink:href="#linear-gradient"/>
    <clipPath id="clippath-2">
      <path class="cls-2" d="M81.27,412.66c-2.54,1.48-4.83,4.47-4.83,8.74,0,7.39,5.98,10.47,12.75,10.47,2.16,0,4.89-.28,6.74-1.19.35-.19.35-.22.35-.94v-2.96c0-1.32,0-2.39.03-3.21.03-.94.31-1.32,1.07-1.45.31-.06.53-.09.75-.09.19,0,.34-.13.34-.28,0-.22-.19-.25-.56-.25-.91,0-2.35.06-3.23.06-.81,0-2.79-.06-4.23-.06-.38,0-.6.03-.6.25,0,.16.19.28.44.28.38,0,.84.03,1.06.09.88.25,1.16.54,1.19,1.45.03.82.03,1.82.03,3.15v2.45c0,.47-.12.76-.53.94-.66.28-1.22.28-1.94.28-5.89,0-9.59-4.18-9.59-9.94,0-3.27,1-5.25,2.54-6.51,1.91-1.54,3.82-1.57,5.33-1.57,3.1,0,5.17,1.2,5.98,2.04.72.76.88,1.6.94,2.2.03.22.09.34.28.34.22,0,.38-.19.38-.6,0-3.36.19-4.09.19-4.4,0-.19-.06-.28-.38-.31-.66-.03-1.63-.19-2.19-.28-.56-.12-2.98-.44-4.89-.44-2.32,0-4.79.19-7.43,1.73"/>
    </clipPath>
    <linearGradient id="linear-gradient-14" x1="-648.55" y1="777.21" x2="-646.81" y2="777.21" gradientTransform="translate(49147.16 59318.71) rotate(.02) scale(75.76 -75.76)" xlink:href="#linear-gradient"/>
    <linearGradient id="linear-gradient-15" x1="47.48" y1="421.45" x2="161.99" y2="421.45" xlink:href="#linear-gradient"/>
    <linearGradient id="linear-gradient-16" x1="47.48" y1="421.45" x2="161.99" y2="421.45" xlink:href="#linear-gradient"/>
    <clipPath id="clippath-3">
      <path class="cls-49" d="M105.77,411.37c-.75,0-2.51-.06-3.79-.06-.41,0-.6.06-.6.25s.16.28.47.28c.35,0,.69.03.91.09.88.25,1.13.53,1.19,1.44.03.85.03,1.6.03,5.66v4.72c0,2.45,0,4.56-.13,5.69-.09.79-.25,1.29-.82,1.41-.25.06-.56.1-.97.1-.35,0-.44.16-.44.28,0,.19.19.28.53.28.56,0,1.25-.03,1.91-.06.66,0,1.25-.03,1.57-.03,1.13,0,2.29.03,3.67.06,1.38.06,2.98.09,4.95.09,1.44,0,1.57-.13,1.75-.73.22-.78.41-2.76.41-3.08s-.06-.6-.25-.6c-.22,0-.28.16-.31.41-.06.5-.34,1.25-.69,1.6-.69.73-1.76.76-3.23.76-2.13,0-3.2-.16-3.67-.57-.59-.5-.59-2.2-.59-5.63v-4.72c0-4.06,0-4.81.06-5.66.06-.94.28-1.32,1.03-1.44.31-.06.75-.09,1.07-.09.34,0,.5-.09.5-.28s-.19-.25-.6-.25c-1.07,0-3.32.06-3.98.06"/>
    </clipPath>
    <linearGradient id="linear-gradient-17" x1="-648.54" y1="777.2" x2="-646.81" y2="777.2" gradientTransform="translate(49146.63 59318.14) rotate(.02) scale(75.76 -75.76)" xlink:href="#linear-gradient"/>
    <linearGradient id="linear-gradient-18" x1="50.03" y1="421.34" x2="163.93" y2="421.34" xlink:href="#linear-gradient"/>
    <linearGradient id="linear-gradient-19" x1="50.03" y1="421.34" x2="163.93" y2="421.34" xlink:href="#linear-gradient"/>
    <clipPath id="clippath-4">
      <path class="cls-42" d="M131.77,411.22c-.22.03-.66.12-1.16.16-.54.03-6.65,0-7.52,0-.78,0-2.54-.06-3.98-.06-.41,0-.63.06-.63.25s.19.28.47.28c.41,0,.88.03,1.1.09.88.25,1.13.53,1.19,1.44.03.85.03,1.6.03,5.66v4.72c0,2.45,0,4.56-.13,5.69-.09.79-.25,1.29-.81,1.41-.25.06-.56.1-.97.1-.35,0-.44.16-.44.28,0,.19.19.28.53.28.56,0,1.26-.03,1.91-.06.66,0,1.25-.03,1.56-.03.82,0,1.85.03,3.2.06,1.35.06,3.01.09,5.08.09,1.03,0,1.29,0,1.47-.69.16-.53.38-2.36.38-2.95,0-.28-.03-.63-.25-.63-.19,0-.25.13-.31.41-.19,1.1-.5,1.67-1.19,1.98-.72.31-1.88.35-2.6.35-2.82,0-3.66-.41-3.73-2.24-.03-.78,0-3.05,0-3.96v-2.14c0-.16.03-.28.16-.28.69,0,3.82.06,4.32.13,1.03.09,1.38.5,1.54,1.04.06.35.06.69.09.98,0,.13.06.22.25.22.25,0,.28-.38.28-.6,0-.19.06-1.26.13-1.79.16-1.35.22-1.79.22-1.95s-.09-.28-.22-.28-.22.16-.44.35c-.28.25-.66.34-1.32.41-.63.06-4.2.06-4.83.06-.16,0-.19-.13-.19-.28v-6.61c0-.16.06-.25.19-.25.56,0,3.85.06,4.32.12,1.38.13,1.6.51,1.82.98.16.31.19.79.19.98,0,.22.03.34.22.34.22,0,.28-.31.31-.44.06-.32.13-1.48.16-1.76.06-1.22.22-1.54.22-1.73,0-.12-.03-.25-.19-.25-.13,0-.28.09-.44.13"/>
    </clipPath>
    <linearGradient id="linear-gradient-20" x1="-648.54" y1="777.19" x2="-646.81" y2="777.19" gradientTransform="translate(49140.1 59322.93) rotate(.03) scale(75.76 -75.76)" xlink:href="#linear-gradient"/>
    <linearGradient id="linear-gradient-21" x1="55.04" y1="421.41" x2="165.71" y2="421.41" xlink:href="#linear-gradient"/>
    <linearGradient id="linear-gradient-22" x1="55.04" y1="421.41" x2="165.71" y2="421.41" xlink:href="#linear-gradient"/>
    <clipPath id="clippath-5">
      <path class="cls-26" d="M137.88,416.31c0,2.36,1.06,4.15,4.32,6.07l1.6.94c2.44,1.45,2.73,2.61,2.73,3.78,0,1.89-1.44,3.4-3.82,3.4-1.72,0-3.79-.66-4.39-2.64-.16-.47-.25-1.04-.25-1.38,0-.19-.03-.44-.28-.44-.22,0-.34.28-.34.69-.03.44-.16,2.11-.16,3.55,0,.59.09.72.53.91,1.19.53,2.88.69,4.48.69,1.47,0,3.29-.16,4.61-1.1,2.01-1.42,2.76-3.02,2.76-5,0-2.42-1.13-4.47-4.76-6.48l-1.13-.63c-2.48-1.38-2.91-2.33-2.91-3.52,0-1.83,1.79-2.86,3.76-2.86,1.79,0,2.66.75,3.07,1.26.59.69.72,1.51.72,1.76,0,.31.09.47.28.47.22,0,.34-.28.34-.85,0-2.11.09-2.86.09-3.21,0-.19-.13-.28-.38-.35-.72-.19-2.13-.44-3.92-.44-3.82,0-6.95,2.11-6.95,5.38"/>
    </clipPath>
    <linearGradient id="linear-gradient-23" x1="-648.54" y1="777.18" x2="-646.82" y2="777.18" gradientTransform="translate(49152.28 59312.03) rotate(.02) scale(75.76 -75.76)" xlink:href="#linear-gradient"/>
    <clipPath id="clippath-6">
      <path class="cls-18" d="M44.57,247.67c.47,1.29,1.09,3.13,1.66,5.34.58,2.21,1.1,4.8,1.44,7.58.34,2.82.46,5.67.48,9,.03,3.32.08,6.75.43,10.01.34,3.27,1.04,6.32,1.98,8.75.93,2.44,2.07,4.25,2.95,5.38.45.57.81.98,1.08,1.24.26.26.4.41.4.41,0,0-.01-.2-.03-.57-.03-.36-.04-.91-.06-1.58-.02-1.36.07-3.26.36-5.52.29-2.26.79-4.88,1.34-7.87.52-3,1.09-6.44,1.06-10.35,0-3.91-.87-7.93-2.28-11.13-1.4-3.24-3.24-5.82-5.01-7.71-1.77-1.9-3.45-3.15-4.64-3.91-.59-.39-1.08-.65-1.41-.83-.33-.17-.51-.26-.51-.26,0,0,.28.73.76,2.03"/>
    </clipPath>
    <linearGradient id="linear-gradient-24" x1="-646.7" y1="780.9" x2="-644.1" y2="780.9" gradientTransform="translate(129809.95 7091.68) rotate(-47.38) scale(128.19 -128.19)" xlink:href="#linear-gradient"/>
    <clipPath id="clippath-7">
      <path class="cls-18" d="M61.21,263.61c-.14,1.41-.4,3.41-.8,5.8-.4,2.39-.97,5.17-1.55,8.3-.57,3.13-1.16,6.64-1.36,10.5-.2,3.87.05,7.72.82,11.21.76,3.49,2.02,6.52,3.41,8.85,1.4,2.34,2.88,3.96,3.98,4.96.55.5,1,.85,1.32,1.08.31.23.48.35.48.35,0,0-.05-.2-.14-.57-.1-.37-.22-.92-.37-1.6-.3-1.38-.6-3.35-.74-5.7-.14-2.35-.12-5.09.06-8.1.17-3.01.5-6.34.69-9.98.19-3.65.19-7.28-.12-10.67-.3-3.39-.93-6.49-1.73-9.01-.8-2.53-1.74-4.47-2.48-5.75-.37-.64-.68-1.11-.91-1.43-.22-.32-.34-.48-.34-.48,0,0-.07.81-.2,2.24"/>
    </clipPath>
    <linearGradient id="linear-gradient-25" x1="-646.7" y1="780.81" x2="-644.1" y2="780.81" gradientTransform="translate(129816.45 7097.68) rotate(-47.38) scale(128.19 -128.19)" xlink:href="#linear-gradient"/>
    <clipPath id="clippath-8">
      <path class="cls-18" d="M70.67,273.94c.06.38.14.94.2,1.65.13,1.42.16,3.41-.09,5.79-.24,2.39-.75,5.12-1.33,8.31-.55,3.19-1.18,6.92-.97,11.23.23,4.35,1.53,8.51,3.36,11.76,1.79,3.31,4.09,5.8,6.16,7.59,2.11,1.78,4.03,2.87,5.4,3.49.67.34,1.23.52,1.59.67.37.13.56.2.56.2,0,0-.42-.71-1.16-1.97-.73-1.25-1.68-3.06-2.62-5.27-.92-2.23-1.85-4.84-2.51-7.72-.71-2.89-1.11-5.95-1.3-9.26-.18-3.37-.19-6.95-.51-10.4-.3-3.45-.98-6.74-1.99-9.33-.98-2.61-2.26-4.51-3.24-5.66-.49-.58-.91-1-1.21-1.26-.3-.26-.45-.4-.45-.4,0,0,.03.21.09.6"/>
    </clipPath>
    <linearGradient id="linear-gradient-26" x1="-646.7" y1="780.72" x2="-644.1" y2="780.72" gradientTransform="translate(129821.4 7102.31) rotate(-47.38) scale(128.19 -128.19)" xlink:href="#linear-gradient"/>
    <clipPath id="clippath-9">
      <path class="cls-18" d="M49.69,302.39c.03.54.08,1.33.2,2.35.24,2.04.7,5,1.92,8.58,1.25,3.54,3.28,7.8,7.04,11.68.46.49.96.95,1.48,1.41.51.47,1.05.92,1.61,1.34,1.12.85,2.28,1.62,3.46,2.32,2.39,1.41,4.68,2.56,7.1,3.76,4.84,2.36,9.59,4.35,13.98,6,4.42,1.62,8.1,2.87,10.99,4.45,2.91,1.56,5.14,3.32,6.62,4.63.75.65,1.29,1.21,1.68,1.58.38.38.58.58.58.58,0,0-.08-.27-.23-.79-.16-.51-.41-1.27-.82-2.23-.81-1.9-2.25-4.64-4.86-7.49-2.61-2.9-6.45-5.55-10.44-7.96-4-2.45-8.48-4.97-13.32-7.34-2.41-1.19-4.88-2.27-6.99-3.24-2.15-.98-3.93-1.94-5.58-3.09-3.32-2.28-6-5.19-8.11-7.85-2.1-2.68-3.65-5.11-4.71-6.81-1.05-1.72-1.64-2.69-1.64-2.69,0,0,.01.28.04.82"/>
    </clipPath>
    <linearGradient id="linear-gradient-27" x1="-646.7" y1="780.62" x2="-644.09" y2="780.62" gradientTransform="translate(129826.62 7107.06) rotate(-47.38) scale(128.19 -128.19)" xlink:href="#linear-gradient"/>
    <clipPath id="clippath-10">
      <path class="cls-18" d="M57.67,330.82c.1.47.3,1.14.66,2,.72,1.7,2.31,4.02,4.74,6.24,1.2,1.11,2.58,2.23,4.03,3.33,1.44,1.1,3.02,2.26,4.8,3.4.89.56,1.85,1.15,2.82,1.66.95.49,1.92.97,2.91,1.45,1,.48,2.02.95,3.06,1.41,1.02.45,2.06.89,3.11,1.35,3.99,1.75,7.68,3.48,11.02,5.27,3.34,1.78,6.32,3.58,8.82,5.2,2.48,1.61,4.42,3.07,5.72,4.19,1.3,1.12,2,1.83,2,1.83,0,0-.16-.97-.77-2.67-.61-1.7-1.76-4.1-3.61-6.75-1.83-2.65-4.32-5.61-7.58-8.42-3.25-2.82-7.29-5.43-11.78-7.4-1.16-.51-2.18-.89-3.23-1.28-1.05-.39-2.08-.76-3.11-1.11-1.02-.35-2.04-.68-3.04-.98-.97-.31-1.85-.63-2.76-.96-1.85-.68-3.62-1.32-5.28-1.92-1.7-.61-3.22-1.12-4.59-1.63-2.72-1-4.76-2.1-6.11-3.11-.65-.51-1.15-.96-1.48-1.28-.32-.33-.5-.51-.5-.51,0,0,.05.24.14.7"/>
    </clipPath>
    <linearGradient id="linear-gradient-28" x1="-646.7" y1="780.53" x2="-644.1" y2="780.53" gradientTransform="translate(129832.34 7112.31) rotate(-47.38) scale(128.19 -128.19)" xlink:href="#linear-gradient"/>
    <clipPath id="clippath-11">
      <path class="cls-18" d="M72.86,350.79c1.11,1.35,2.8,3.2,5.02,5.34,4.42,4.3,11.09,9.43,18.37,14.33,1.81,1.22,3.4,2.32,4.76,3.44,1.38,1.15,2.74,2.48,4.1,3.84,2.77,2.78,5.34,5.17,7.43,7.25,2.09,2.06,3.74,3.83,4.86,5.12,1.11,1.31,1.73,2.04,1.73,2.04,0,0-.06-.97-.4-2.7-.34-1.72-1.02-4.21-2.24-7.12-1.22-2.91-2.97-6.19-5.1-9.61-1.09-1.73-2.38-3.6-4.1-5.43-1.75-1.86-3.75-3.4-5.71-4.74-3.91-2.64-7.82-4.68-11.43-6.36-3.6-1.67-6.92-2.99-9.72-4.08-2.8-1.09-5.11-1.94-6.72-2.54-1.61-.59-2.53-.91-2.53-.91,0,0,.56.79,1.67,2.13"/>
    </clipPath>
    <linearGradient id="linear-gradient-29" x1="-646.7" y1="780.42" x2="-644.1" y2="780.42" gradientTransform="translate(129838.67 7118.18) rotate(-47.38) scale(128.19 -128.19)" xlink:href="#linear-gradient"/>
    <clipPath id="clippath-12">
      <path class="cls-18" d="M255.22,126.15c-.6.32-1.48.8-2.56,1.51-2.17,1.39-5.22,3.65-8.44,7.11-3.22,3.44-6.57,8.14-9.12,14.02-2.55,5.82-4.14,13.13-4.15,20.24-.06,7.12.98,13.39,1.93,18.84.98,5.44,1.9,10.19,2.42,14.31.54,4.1.69,7.56.66,10.03-.03,1.23-.06,2.22-.11,2.88-.04.68-.06,1.03-.06,1.03,0,0,.25-.25.73-.73.49-.48,1.15-1.23,1.97-2.26,1.6-2.05,3.68-5.34,5.37-9.79,1.7-4.42,2.97-9.96,3.59-15.91.65-5.94.72-12.18.78-18.21.03-6.05.26-11.25.87-16.37.62-5.06,1.56-9.76,2.62-13.78,1.04-4.02,2.18-7.37,3.03-9.71.88-2.36,1.38-3.69,1.38-3.69,0,0-.31.17-.91.48"/>
    </clipPath>
    <linearGradient id="linear-gradient-30" x1="-646.7" y1="780.55" x2="-644.1" y2="780.55" gradientTransform="translate(129831.59 7111.68) rotate(-47.38) scale(128.19 -128.19)" xlink:href="#linear-gradient"/>
    <clipPath id="clippath-13">
      <path class="cls-18" d="M223.5,155.16c-.41.58-.97,1.45-1.65,2.61-1.35,2.31-3.06,5.85-4.52,10.45-1.45,4.59-2.6,10.23-3.15,16.38-.57,6.16-.56,12.77-.21,19.4.34,6.63.94,12.69,1.24,18.16.32,5.47.37,10.46.11,14.73-.26,4.27-.81,7.85-1.35,10.35-.27,1.25-.5,2.25-.68,2.92-.16.68-.25,1.04-.25,1.04,0,0,.3-.22.87-.63.58-.41,1.39-1.06,2.4-1.97,2-1.81,4.69-4.76,7.23-9.02,2.52-4.24,4.82-9.76,6.2-16.1,1.41-6.35,1.86-13.35,1.5-20.39-.38-7.03-1.45-13.42-2.48-19.1-1.05-5.69-2.07-10.75-2.81-15.1-.73-4.34-1.21-7.97-1.46-10.55-.23-2.6-.36-4.07-.36-4.07,0,0-.21.3-.62.88"/>
    </clipPath>
    <linearGradient id="linear-gradient-31" x1="-646.7" y1="780.51" x2="-644.1" y2="780.51" gradientTransform="translate(129832.45 7112.56) rotate(-47.38) scale(128.19 -128.19)" xlink:href="#linear-gradient"/>
    <clipPath id="clippath-14">
      <path class="cls-18" d="M206.64,176.79c-.54.48-1.3,1.23-2.2,2.29-1.8,2.1-4.12,5.56-5.9,10.3-1.83,4.71-3.07,10.68-3.61,16.96-.58,6.28-.6,12.79-.93,18.92-.34,6.03-1.08,11.58-2.37,16.84-1.19,5.25-2.9,9.99-4.57,14.05-1.7,4.03-3.44,7.33-4.76,9.59-1.35,2.29-2.11,3.58-2.11,3.58,0,0,.35-.13,1.02-.37.66-.26,1.68-.6,2.9-1.2,2.49-1.14,6-3.1,9.83-6.34,3.78-3.26,7.95-7.8,11.21-13.81,3.33-5.91,5.69-13.48,6.11-21.4.39-7.83-.76-14.61-1.76-20.41-1.05-5.81-1.99-10.77-2.42-15.11-.46-4.32-.41-7.94-.17-10.52.12-1.29.25-2.32.37-3.01.11-.7.17-1.07.17-1.07l-.82.72Z"/>
    </clipPath>
    <linearGradient id="linear-gradient-32" x1="-646.69" y1="780.55" x2="-644.1" y2="780.55" gradientTransform="translate(129831.68 7111.68) rotate(-47.38) scale(128.19 -128.19)" xlink:href="#linear-gradient"/>
    <clipPath id="clippath-15">
      <path class="cls-18" d="M242.53,232.28c-1.92,3.1-4.75,7.51-8.57,12.38-3.83,4.84-8.71,10.13-14.74,14.28-3,2.09-6.24,3.83-10.15,5.63-3.83,1.77-8.33,3.73-12.71,5.89-8.81,4.3-16.96,8.88-24.23,13.34-7.26,4.38-14.25,9.2-18.99,14.47-4.76,5.2-7.37,10.17-8.85,13.63-.75,1.73-1.19,3.13-1.5,4.06-.27.94-.41,1.44-.41,1.44,0,0,.36-.37,1.05-1.05.7-.68,1.7-1.68,3.06-2.87,2.69-2.38,6.73-5.57,12.03-8.41,5.26-2.88,11.95-5.14,19.99-8.1,7.99-2.99,16.62-6.6,25.43-10.9,4.41-2.18,8.58-4.27,12.92-6.83,2.14-1.28,4.26-2.68,6.3-4.22,1.01-.77,2.01-1.58,2.94-2.43.95-.82,1.85-1.68,2.69-2.57,6.83-7.05,10.54-14.8,12.8-21.24,2.22-6.51,3.07-11.89,3.5-15.6.2-1.86.32-3.3.36-4.28.05-.97.07-1.49.07-1.49,0,0-1.07,1.75-2.98,4.88"/>
    </clipPath>
    <linearGradient id="linear-gradient-33" x1="-646.7" y1="780.41" x2="-644.1" y2="780.41" gradientTransform="translate(129842.17 7121.31) rotate(-47.38) scale(128.19 -128.19)" xlink:href="#linear-gradient"/>
    <clipPath id="clippath-16">
      <path class="cls-18" d="M230.28,280.25c-.58.59-1.49,1.41-2.69,2.33-2.44,1.85-6.16,3.84-11.11,5.66-2.49.93-5.25,1.86-8.34,2.96-3.01,1.1-6.22,2.27-9.59,3.5-1.66.59-3.27,1.18-5.03,1.74-1.81.56-3.66,1.16-5.52,1.79-1.86.63-3.75,1.3-5.65,2.01-1.91.72-3.77,1.41-5.87,2.34-8.18,3.57-15.53,8.33-21.43,13.45-5.92,5.12-10.46,10.51-13.79,15.31-3.36,4.83-5.46,9.2-6.57,12.28-1.12,3.09-1.4,4.86-1.4,4.86,0,0,1.26-1.29,3.63-3.33,2.36-2.04,5.88-4.7,10.4-7.63,4.53-2.95,9.97-6.23,16.04-9.46,6.07-3.25,12.78-6.4,20.04-9.58,1.91-.83,3.8-1.64,5.65-2.45,1.9-.84,3.76-1.71,5.57-2.57,1.81-.87,3.58-1.75,5.3-2.63,1.76-.92,3.51-1.99,5.12-3.01,3.24-2.07,6.12-4.18,8.74-6.19,2.62-2,5.14-4.02,7.32-6.04,4.42-4.05,7.31-8.27,8.62-11.35.66-1.56,1.01-2.78,1.2-3.63.17-.84.25-1.28.25-1.28,0,0-.31.32-.9.92"/>
    </clipPath>
    <linearGradient id="linear-gradient-34" x1="-646.7" y1="780.29" x2="-644.1" y2="780.29" gradientTransform="translate(129845.65 7124.56) rotate(-47.38) scale(128.19 -128.19)" xlink:href="#linear-gradient"/>
    <clipPath id="clippath-17">
      <path class="cls-18" d="M201.75,314.71c-2.92,1.09-7.13,2.63-12.22,4.61-5.1,1.99-11.12,4.39-17.68,7.43-6.56,3.05-13.68,6.76-20.78,11.57-3.57,2.42-7.21,5.23-10.39,8.61-3.13,3.34-5.47,6.74-7.45,9.89-3.88,6.2-7.07,12.17-9.28,17.47-2.23,5.29-3.46,9.81-4.08,12.95-.62,3.14-.72,4.9-.72,4.9,0,0,1.13-1.34,3.15-3.71,2.04-2.34,5.03-5.55,8.84-9.32,3.8-3.77,8.46-8.11,13.5-13.17,2.48-2.48,4.95-4.91,7.47-6.99,2.47-2.05,5.38-4.04,8.66-6.26,13.25-8.91,25.38-18.24,33.42-26.06,4.04-3.88,7.11-7.27,9.14-9.71,2.02-2.43,3.04-3.87,3.04-3.87,0,0-1.67.57-4.6,1.66"/>
    </clipPath>
    <linearGradient id="linear-gradient-35" x1="-646.7" y1="780.22" x2="-644.1" y2="780.22" gradientTransform="translate(129847.37 7126.18) rotate(-47.38) scale(128.19 -128.19)" xlink:href="#linear-gradient"/>
  </defs>
  <path class="cls-50" d="M183.4,428.05c0,.69-.16,1.14-.47,1.34-1.11.59-2.54,1.02-4.29,1.29-1.46.25-3,.38-4.62.38-4.9,0-8.87-1.15-11.93-3.46-1.62-1.21-2.87-2.7-3.73-4.47-.94-1.93-1.41-4.13-1.41-6.61,0-2.79.66-5.3,1.97-7.53,1.13-1.96,2.62-3.49,4.46-4.6,1.6-.97,3.31-1.63,5.14-1.99.77-.16,1.58-.27,2.44-.34.7-.05,1.49-.07,2.36-.07,1.11,0,2.42.07,3.95.22,1.19.16,2.06.28,2.6.38.49.1.97.18,1.44.25.61.07,1.11.12,1.48.14.19.04.34.09.43.16.05.05.07.14.07.29l-.07.89c-.02.18-.04.37-.04.56-.05.52-.08,1.11-.11,1.77-.02.85-.04,1.8-.04,2.86,0,.52-.14.78-.41.78-.19,0-.31-.16-.36-.49l-.11-.71c-.05-.27-.11-.53-.2-.78-.22-.59-.54-1.12-.96-1.59-.69-.71-1.67-1.34-2.96-1.88-1.62-.66-3.38-1-5.27-1-.65,0-1.2.02-1.64.07-.64.05-1.24.13-1.8.25-1.43.35-2.72,1.01-3.88,1.97-1.08.91-1.91,2.06-2.47,3.48-.61,1.53-.92,3.4-.92,5.6,0,4.06,1.17,7.38,3.5,9.98,2.39,2.64,5.51,3.97,9.35,3.97h.78c.3,0,.57-.01.81-.04.65-.07,1.17-.19,1.55-.36.47-.23.7-.69.7-1.38v-5.98c0-.76-.01-1.39-.04-1.88-.02-1.18-.55-1.89-1.59-2.12-.29-.07-.77-.11-1.44-.11-.36,0-.54-.1-.54-.29,0-.25.26-.38.78-.38l6.35.11c.22-.02.6-.05,1.14-.07l2.18-.04c.49,0,.74.13.74.38,0,.19-.16.29-.47.29-.23,0-.57.04-1.01.11-.91.17-1.38.88-1.41,2.12-.02.5-.04,1.14-.04,1.92v6.61Z"/>
  <path class="cls-9" d="M191.4,414.98l-.05-1.56c-.05-.82-.41-1.31-1.09-1.46-.21-.05-.54-.07-.99-.07-.29,0-.43-.08-.43-.24,0-.15.19-.22.56-.22l2.72.05c.07,0,.13,0,.19.02l4.15-.07c.95,0,1.76.07,2.42.2.88.17,1.63.47,2.26.9.42.29.8.71,1.14,1.27.39.7.58,1.44.58,2.22,0,1-.24,1.93-.71,2.79-.52.95-1.4,1.92-2.64,2.92l3.05,3.82c.98,1.23,1.81,2.19,2.47,2.89.6.63,1.2,1.1,1.8,1.41.12.05.24.09.36.12.08.05.17.08.27.1.07.03.14.06.24.07l.17.02c.29.05.52.07.71.07.21,0,.31.07.31.21,0,.17-.16.25-.48.25h-2.42c-1.22,0-2.12-.16-2.72-.49-.5-.27-1.05-.72-1.62-1.34-.44-.51-1.05-1.31-1.85-2.4l-2.52-3.51c-.1-.12-.25-.19-.46-.19l-2.21-.05c-.13,0-.2.07-.2.21v2.05c0,.6,0,1.1.02,1.51.02,1.02.05,1.77.1,2.24.08.85.41,1.32.99,1.41.5.07.92.1,1.24.1.21,0,.31.07.31.21,0,.17-.17.25-.51.25l-3-.05c-.08,0-.15,0-.2-.02l-3.63.07c-.34,0-.51-.08-.51-.25,0-.14.13-.21.4-.21.31,0,.61-.03.92-.1.37-.07.62-.54.74-1.41.05-.47.08-1.22.1-2.24.02-.41.02-.91.02-1.51v-10.01ZM194.4,420.84c0,.23.07.38.22.45.5.17,1.15.26,1.93.26s1.39-.14,1.8-.44c.44-.32.79-.77,1.04-1.34.31-.68.46-1.51.46-2.48,0-.85-.14-1.61-.41-2.27-.22-.56-.55-1.04-.97-1.43-.73-.65-1.57-.97-2.52-.97-.67,0-1.12.03-1.34.1-.15.05-.22.17-.22.36v7.75Z"/>
  <path class="cls-22" d="M212.74,430.14c-1.24-.56-2.3-1.35-3.17-2.39-.8-.92-1.41-1.99-1.81-3.21-.39-1.13-.58-2.29-.58-3.47s.19-2.28.56-3.39c.42-1.23,1.03-2.31,1.84-3.24.89-1.04,1.98-1.85,3.25-2.43,1.42-.63,3.04-.95,4.85-.95,3.15,0,5.65.86,7.49,2.58,1.84,1.72,2.76,4.04,2.76,6.96s-.95,5.47-2.84,7.42c-1.95,2.02-4.51,3.04-7.68,3.04-1.74,0-3.3-.31-4.66-.92ZM220.16,429.53c.73-.22,1.37-.59,1.92-1.1.69-.63,1.24-1.46,1.62-2.5.44-1.2.66-2.66.66-4.38,0-2.79-.72-5.05-2.16-6.78-1.39-1.65-3.15-2.48-5.28-2.48-.79,0-1.53.12-2.21.36-.78.27-1.45.69-2.01,1.26-.64.64-1.12,1.45-1.46,2.44-.37,1.1-.56,2.41-.56,3.93,0,2.73.69,4.97,2.08,6.72,1.44,1.85,3.34,2.78,5.7,2.78.58,0,1.14-.08,1.69-.25Z"/>
  <path class="cls-19" d="M230.39,414.8l-.05-1.56c-.05-.82-.41-1.31-1.09-1.46-.21-.05-.54-.07-.99-.07-.29,0-.43-.08-.43-.24,0-.15.19-.22.56-.22l4.31.07c.12-.02.26-.02.41-.02l2.11-.05c.37,0,.56.07.56.22,0,.16-.14.24-.41.24-.18,0-.43.02-.73.07-.58.1-.89.58-.94,1.46l-.05,1.56v7.4c0,1.75.18,3.13.53,4.13.31.89.79,1.6,1.45,2.14.5.43,1.07.72,1.7.87.42.12.91.17,1.48.17.63,0,1.23-.1,1.8-.3.66-.24,1.23-.6,1.7-1.07.63-.63,1.05-1.53,1.28-2.7.08-.5.14-1.08.17-1.74.02-.46.02-1.08.02-1.88v-7.03l-.05-1.56c-.05-.82-.41-1.31-1.09-1.46-.21-.05-.51-.07-.92-.07-.29,0-.43-.08-.43-.24,0-.15.18-.22.53-.22.55,0,1.19,0,1.93.02.13.02.27.02.41.02l1.02.02s.11-.02.17-.02l2.28-.05c.36,0,.53.07.53.22,0,.16-.15.24-.45.24-.19,0-.44.02-.74.07-.57.1-.88.58-.94,1.46l-.05,1.56v6.57c0,.81-.02,1.53-.07,2.14-.07.76-.17,1.45-.32,2.07-.38,1.48-1.05,2.63-2.01,3.46-.83.71-1.73,1.22-2.69,1.51-.76.22-1.62.34-2.59.34h-.56l-.63-.05c-.51-.03-.99-.1-1.43-.21-1.21-.27-2.22-.76-3.03-1.49-.71-.65-1.25-1.46-1.62-2.43-.42-1.15-.63-2.6-.63-4.33v-7.57Z"/>
  <path class="cls-25" d="M253.11,414.98l-.05-1.56c-.05-.82-.41-1.31-1.09-1.46-.21-.05-.54-.07-.99-.07-.29,0-.43-.08-.43-.24,0-.15.19-.22.56-.22l4.5.07c.13-.02.29-.02.47-.02l2.37-.05c.74,0,1.42.06,2.03.17.5.08.96.22,1.36.41.32.13.61.29.87.49l.29.2.17.19c.34.32.62.72.83,1.19.29.61.43,1.22.43,1.83,0,1.8-.59,3.28-1.77,4.44-1.17,1.15-2.66,1.73-4.48,1.73h-.25c-.13,0-.23,0-.29-.02-.1-.02-.17-.03-.2-.05-.07-.03-.1-.1-.1-.19,0-.18.24-.27.71-.27.79,0,1.54-.37,2.23-1.12.79-.85,1.18-1.88,1.18-3.09,0-.29,0-.54-.02-.76-.04-.36-.1-.69-.19-1-.23-.82-.66-1.51-1.29-2.07-.41-.37-.87-.65-1.4-.82-.37-.12-.75-.17-1.14-.17-.45,0-.79.03-.99.1-.13.05-.2.21-.2.49v11.87c0,.6,0,1.1.02,1.51.02,1.02.05,1.78.1,2.27.08.85.41,1.32.99,1.38.47.07.9.1,1.29.1.27,0,.41.07.41.21,0,.17-.16.25-.48.25l-3.07-.05c-.08,0-.15,0-.2-.02l-3.86.07c-.34,0-.51-.08-.51-.25,0-.14.13-.21.4-.21.31,0,.61-.03.92-.1.37-.07.62-.54.74-1.41.05-.47.08-1.22.1-2.24.02-.41.02-.91.02-1.51v-10.01Z"/>
  <g>
    <path class="cls-43" d="M53.45,401.73c-.31.08-.93.16-1.68.24-.74.04-8.49.04-9.74.04-.55,0-1.44-.04-2.46-.08-.97,0-2.1-.04-3.15-.04-.58,0-.86.08-.86.35s.23.35.66.35c.55,0,1.21.04,1.52.12,1.29.27,1.6.9,1.68,2.23.08,1.25.08,2.34.08,8.29v6.88c0,3.6,0,6.69-.2,8.33-.15,1.14-.35,2-1.13,2.15-.35.08-.82.16-1.4.16-.47,0-.62.12-.62.31,0,.27.27.39.78.39.78,0,1.79-.08,2.69-.08.93-.04,1.79-.04,2.22-.04,1.17,0,2.38.04,4.05.12,1.67.04,3.81.12,6.74.12,1.48,0,1.83,0,2.1-1.01.2-.78.51-3.44.51-4.34,0-.39,0-.7-.31-.7-.27,0-.35.16-.43.59-.27,1.6-.74,2.42-1.75,2.89-1.01.47-2.65.47-3.66.47-3.97,0-4.6-.59-4.68-3.29-.04-1.13,0-4.73,0-6.06v-3.09c0-.23.04-.39.24-.39.93,0,4.79.04,5.53.12,1.44.16,1.99.74,2.18,1.53.12.51.12,1.02.16,1.41,0,.2.08.35.35.35.35,0,.35-.43.35-.74,0-.27.12-1.84.16-2.62.16-1.99.31-2.62.31-2.85s-.12-.31-.27-.31c-.2,0-.35.19-.62.51-.35.39-.94.51-1.87.59-.9.08-5.37.08-6.23.08-.23,0-.27-.16-.27-.43v-9.89c0-.27.08-.39.27-.39.78,0,4.87.08,5.53.16,1.95.24,2.34.71,2.61,1.4.19.47.23,1.14.23,1.41,0,.35.08.55.35.55s.35-.24.39-.43c.08-.47.16-2.19.19-2.58.12-1.8.31-2.27.31-2.54,0-.2-.04-.35-.23-.35s-.43.12-.62.16"/>
    <g class="cls-53">
      <rect class="cls-31" x="33.97" y="400.58" width="22.87" height="31.99" transform="translate(-46.14 7.66) rotate(-6.4)"/>
    </g>
  </g>
  <g>
    <path class="cls-40" d="M63.48,423.11l2.66-6.67c.03-.09.06-.25.16-.25.06,0,.09.16.12.25l2.6,6.7c.03.09,0,.16-.12.16h-5.33c-.09,0-.16-.06-.09-.19M66.21,411.88l-7.21,16.7c-.56,1.35-1.03,2.17-2.29,2.36-.25,0-.56.03-.81.03-.22,0-.31.12-.31.28,0,.22.16.28.5.28,1.44,0,2.91-.09,3.2-.09.88,0,2.16.09,3.07.09.28,0,.44-.06.44-.28,0-.16-.06-.28-.41-.28h-.41c-.85,0-1.1-.28-1.1-.75,0-.32.13-.98.41-1.64l1.47-3.62c.06-.16.09-.19.25-.19h6.48c.13,0,.22.03.28.19l2.13,5.41c.13.32-.06.57-.25.6-.28.03-.34.12-.34.28,0,.19.31.19.82.22,2.32.06,4.33.06,5.29.06,1.03,0,1.19-.06,1.19-.28,0-.19-.13-.28-.38-.28-.31,0-.63-.03-1.03-.1-.5-.09-1.28-.44-2.35-2.86-1.75-4.06-6.36-14.88-7.02-16.35-.28-.6-.41-.85-.82-.85-.28,0-.5.31-.81,1.07"/>
    <g class="cls-24">
      <rect class="cls-41" x="54.51" y="409.59" width="25.18" height="23.17" transform="translate(-46.55 10.11) rotate(-6.4)"/>
    </g>
  </g>
  <g>
    <path class="cls-12" d="M81.27,412.66c-2.54,1.48-4.83,4.47-4.83,8.74,0,7.39,5.98,10.47,12.75,10.47,2.16,0,4.89-.28,6.74-1.19.35-.19.35-.22.35-.94v-2.96c0-1.32,0-2.39.03-3.21.03-.94.31-1.32,1.07-1.45.31-.06.53-.09.75-.09.19,0,.34-.13.34-.28,0-.22-.19-.25-.56-.25-.91,0-2.35.06-3.23.06-.81,0-2.79-.06-4.23-.06-.38,0-.6.03-.6.25,0,.16.19.28.44.28.38,0,.84.03,1.06.09.88.25,1.16.54,1.19,1.45.03.82.03,1.82.03,3.15v2.45c0,.47-.12.76-.53.94-.66.28-1.22.28-1.94.28-5.89,0-9.59-4.18-9.59-9.94,0-3.27,1-5.25,2.54-6.51,1.91-1.54,3.82-1.57,5.33-1.57,3.1,0,5.17,1.2,5.98,2.04.72.76.88,1.6.94,2.2.03.22.09.34.28.34.22,0,.38-.19.38-.6,0-3.36.19-4.09.19-4.4,0-.19-.06-.28-.38-.31-.66-.03-1.63-.19-2.19-.28-.56-.12-2.98-.44-4.89-.44-2.32,0-4.79.19-7.43,1.73"/>
    <g class="cls-46">
      <rect class="cls-34" x="75.35" y="409.77" width="24.21" height="23.27" transform="translate(-46.42 12.37) rotate(-6.4)"/>
    </g>
  </g>
  <g>
    <path class="cls-1" d="M105.77,411.37c-.75,0-2.51-.06-3.79-.06-.41,0-.6.06-.6.25s.16.28.47.28c.35,0,.69.03.91.09.88.25,1.13.53,1.19,1.44.03.85.03,1.6.03,5.66v4.72c0,2.45,0,4.56-.13,5.69-.09.79-.25,1.29-.82,1.41-.25.06-.56.1-.97.1-.35,0-.44.16-.44.28,0,.19.19.28.53.28.56,0,1.25-.03,1.91-.06.66,0,1.25-.03,1.57-.03,1.13,0,2.29.03,3.67.06,1.38.06,2.98.09,4.95.09,1.44,0,1.57-.13,1.75-.73.22-.78.41-2.76.41-3.08s-.06-.6-.25-.6c-.22,0-.28.16-.31.41-.06.5-.34,1.25-.69,1.6-.69.73-1.76.76-3.23.76-2.13,0-3.2-.16-3.67-.57-.59-.5-.59-2.2-.59-5.63v-4.72c0-4.06,0-4.81.06-5.66.06-.94.28-1.32,1.03-1.44.31-.06.75-.09,1.07-.09.34,0,.5-.09.5-.28s-.19-.25-.6-.25c-1.07,0-3.32.06-3.98.06"/>
    <g class="cls-32">
      <rect class="cls-38" x="100.3" y="410.54" width="17.19" height="21.83" transform="translate(-46.3 14.76) rotate(-6.4)"/>
    </g>
  </g>
  <g>
    <path class="cls-54" d="M131.77,411.22c-.22.03-.66.12-1.16.16-.54.03-6.65,0-7.52,0-.78,0-2.54-.06-3.98-.06-.41,0-.63.06-.63.25s.19.28.47.28c.41,0,.88.03,1.1.09.88.25,1.13.53,1.19,1.44.03.85.03,1.6.03,5.66v4.72c0,2.45,0,4.56-.13,5.69-.09.79-.25,1.29-.81,1.41-.25.06-.56.1-.97.1-.35,0-.44.16-.44.28,0,.19.19.28.53.28.56,0,1.26-.03,1.91-.06.66,0,1.25-.03,1.56-.03.82,0,1.85.03,3.2.06,1.35.06,3.01.09,5.08.09,1.03,0,1.29,0,1.47-.69.16-.53.38-2.36.38-2.95,0-.28-.03-.63-.25-.63-.19,0-.25.13-.31.41-.19,1.1-.5,1.67-1.19,1.98-.72.31-1.88.35-2.6.35-2.82,0-3.66-.41-3.73-2.24-.03-.78,0-3.05,0-3.96v-2.14c0-.16.03-.28.16-.28.69,0,3.82.06,4.32.13,1.03.09,1.38.5,1.54,1.04.06.35.06.69.09.98,0,.13.06.22.25.22.25,0,.28-.38.28-.6,0-.19.06-1.26.13-1.79.16-1.35.22-1.79.22-1.95s-.09-.28-.22-.28-.22.16-.44.35c-.28.25-.66.34-1.32.41-.63.06-4.2.06-4.83.06-.16,0-.19-.13-.19-.28v-6.61c0-.16.06-.25.19-.25.56,0,3.85.06,4.32.12,1.38.13,1.6.51,1.82.98.16.31.19.79.19.98,0,.22.03.34.22.34.22,0,.28-.31.31-.44.06-.32.13-1.48.16-1.76.06-1.22.22-1.54.22-1.73,0-.12-.03-.25-.19-.25-.13,0-.28.09-.44.13"/>
    <g class="cls-8">
      <rect class="cls-37" x="117.4" y="410.34" width="16.75" height="22" transform="translate(-46.23 16.66) rotate(-6.41)"/>
    </g>
  </g>
  <g>
    <path class="cls-44" d="M137.88,416.31c0,2.36,1.06,4.15,4.32,6.07l1.6.94c2.44,1.45,2.73,2.61,2.73,3.78,0,1.89-1.44,3.4-3.82,3.4-1.72,0-3.79-.66-4.39-2.64-.16-.47-.25-1.04-.25-1.38,0-.19-.03-.44-.28-.44-.22,0-.34.28-.34.69-.03.44-.16,2.11-.16,3.55,0,.59.09.72.53.91,1.19.53,2.88.69,4.48.69,1.47,0,3.29-.16,4.61-1.1,2.01-1.42,2.76-3.02,2.76-5,0-2.42-1.13-4.47-4.76-6.48l-1.13-.63c-2.48-1.38-2.91-2.33-2.91-3.52,0-1.83,1.79-2.86,3.76-2.86,1.79,0,2.66.75,3.07,1.26.59.69.72,1.51.72,1.76,0,.31.09.47.28.47.22,0,.34-.28.34-.85,0-2.11.09-2.86.09-3.21,0-.19-.13-.28-.38-.35-.72-.19-2.13-.44-3.92-.44-3.82,0-6.95,2.11-6.95,5.38"/>
    <g class="cls-28">
      <rect class="cls-51" x="136.17" y="410.31" width="14.62" height="22.19" transform="translate(-46.04 18.6) rotate(-6.39)"/>
    </g>
  </g>
  <g class="cls-4">
    <polygon class="cls-27" points="19.13 272.57 50.18 238.7 82.38 268.44 51.33 302.31 19.13 272.57"/>
  </g>
  <g class="cls-5">
    <polygon class="cls-10" points="30.85 290.22 61.98 256.27 93.96 285.8 62.82 319.76 30.85 290.22"/>
  </g>
  <g class="cls-30">
    <polygon class="cls-16" points="42.81 301.1 76.19 264.69 111.01 296.85 77.63 333.26 42.81 301.1"/>
  </g>
  <g class="cls-14">
    <polygon class="cls-13" points="25.09 328.36 75.65 273.21 130.91 324.25 80.35 379.4 25.09 328.36"/>
  </g>
  <g class="cls-15">
    <polygon class="cls-3" points="38.66 350.71 82.21 303.2 130.23 347.55 86.68 395.06 38.66 350.71"/>
  </g>
  <g class="cls-17">
    <polygon class="cls-36" points="49.6 372.2 93.17 324.68 140.72 368.6 97.15 416.12 49.6 372.2"/>
  </g>
  <g class="cls-33">
    <polygon class="cls-21" points="185.98 174.65 242.46 113.04 301.04 167.14 244.56 228.75 185.98 174.65"/>
  </g>
  <g class="cls-48">
    <polygon class="cls-52" points="164.93 206.76 221.56 145 279.72 198.72 223.1 260.49 164.93 206.76"/>
  </g>
  <g class="cls-35">
    <polygon class="cls-47" points="133.91 226.56 194.63 160.33 257.95 218.82 197.24 285.05 133.91 226.56"/>
  </g>
  <g class="cls-7">
    <polygon class="cls-29" points="97.71 276.13 189.67 175.82 290.19 268.66 198.23 368.97 97.71 276.13"/>
  </g>
  <g class="cls-45">
    <polygon class="cls-23" points="98.95 316.78 178.17 230.37 265.52 311.04 186.3 397.45 98.95 316.78"/>
  </g>
  <g class="cls-6">
    <polygon class="cls-20" points="79.87 355.88 159.12 269.44 245.61 349.32 166.36 435.76 79.87 355.88"/>
  </g>
</svg>